<svg version="1.2" xmlns="http://www.w3.org/2000/svg" viewBox="0 0 225 34" width="331" height="50">
	<title>deepmetrics</title>
	<defs>
		<clipPath clipPathUnits="userSpaceOnUse" id="cp1">
			<path d="m0 0h225v34h-225z"/>
		</clipPath>
		<clipPath clipPathUnits="userSpaceOnUse" id="cp2">
			<path d="m0 0h35v34h-35z"/>
		</clipPath>
	</defs>
	<style>
		.s0 { fill: #858585 } 
		.s1 { fill: #efefef } 
		.s2 { fill: #d3d3d3 } 
	</style>
	<g id="Clip-Path" clip-path="url(#cp1)">
		<g>
			<g id="Clip-Path" clip-path="url(#cp2)">
				<g>
					<path class="s0" d="m8.8 21.5v-10.7l-3-1.8v10.7z"/>
					<path class="s1" d="m17.5 9l-14.6-9-2.9 1.8 17.5 10.8 17.5-10.8-2.9-1.8z"/>
					<path class="s0" d="m35 1.8v21.5l-2.9 1.8v-17.9l-4.4 2.6v17.9l-2.9 1.8v-17.8l-4.4 2.6v17.9l-2.9 1.8v-21.4z"/>
					<path class="s2" d="m17.5 34l-17.5-10.7v-3.6l14.6 8.8v-14.2l-14.6-8.9v-3.6l17.5 10.8z"/>
					<path class="s1" d="m0 19.7l2.9-1.8 11.7 7.2v3.4z"/>
					<path class="s2" d="m2.9 17.9v-10.7l2.9 1.8v10.7z"/>
					<path class="s2" d="m24.8 29.5l-2.9-1.7v-14.4l2.9-1.7z"/>
					<path class="s2" d="m32.1 25.1l-2.9-1.8v-14.4l2.9-1.7z"/>
				</g>
			</g>
		</g>
	</g>
</svg>